<svg width="89" height="21" viewBox="0 0 89 21" fill="none" xmlns="http://www.w3.org/2000/svg">
<g clip-path="url(#clip0_2531_9413)">
<path d="M17.5466 16.0099C17.6747 15.8818 18.0589 16.0953 17.9308 16.3515C16.65 18.2726 13.875 20.5353 9.52041 20.3218C3.75694 20.023 0 16.2234 0 10.2038C0 4.3122 4.09847 0.0429688 9.81924 0.0429688C14.0031 0.0429688 16.3512 1.62259 17.2477 3.71451C17.8881 5.29414 16.0523 7.04452 13.4481 6.74567C12.9785 6.70299 12.8077 6.23336 12.8931 5.80645C13.4054 3.58644 11.0146 1.02489 8.62387 1.02489C8.15424 1.02489 7.72733 1.11028 7.3004 1.32374C4.86693 2.43374 4.82423 7.04452 5.93425 10.2038C7.77001 15.4549 11.0573 17.803 13.747 17.803C15.4973 17.803 16.5647 17.0772 17.5466 16.0099Z" fill="black"/>
<path d="M34.9648 6.27578C37.3129 11.4842 35.3063 17.4612 30.4821 19.6385C29.2868 20.1935 28.006 20.4497 26.7679 20.4497C22.9682 20.4497 19.254 18.1016 17.5036 14.1739C15.1555 9.0081 17.162 3.03115 21.9863 0.811156C23.1816 0.256154 24.4197 0 25.6579 0C29.4147 0 33.1717 2.39077 34.9648 6.27578ZM30.2258 19.0408C31.9762 18.2723 31.5921 13.6616 29.4147 8.79463C27.1947 3.92769 23.9927 0.597693 22.2425 1.40885C20.492 2.22001 20.8336 6.78809 23.0537 11.655C25.2735 16.522 28.4754 19.852 30.2258 19.0408Z" fill="black"/>
<path d="M53.6174 19.3399C53.9163 19.5534 53.7881 19.9376 53.404 19.9376H47.0856C46.7013 19.9376 46.616 19.5534 46.872 19.3399C47.2564 19.0411 47.4271 18.6996 47.4271 17.803V5.5076C47.4271 3.84259 46.872 2.34837 44.9937 2.34837C43.5848 2.34837 42.4322 3.28758 41.7489 4.01337V17.803C41.7489 18.6996 41.877 19.0411 42.304 19.3399C42.5601 19.5534 42.4748 19.9376 42.0904 19.9376H35.7294C35.3451 19.9376 35.2598 19.5534 35.5587 19.3399C35.9428 19.0411 36.1136 18.6996 36.1136 17.803V2.60452C36.1136 1.70797 35.9428 1.36643 35.5587 1.06759C35.2598 0.854126 35.3451 0.4272 35.7294 0.4272H40.34C41.1085 0.4272 41.7489 1.06759 41.7489 1.83605V2.98875C42.6882 1.92143 44.8227 0.0429688 48.1956 0.0429688C51.184 0.0429688 53.0625 2.39104 53.0625 4.61106V17.803C53.0625 18.6996 53.2332 19.0411 53.6174 19.3399Z" fill="black"/>
<path d="M71.3088 0.854661C71.0525 3.03197 69.0888 7.30121 68.4484 8.88084C67.7227 10.7593 65.8015 15.4128 64.6487 18.2305C64.9049 18.8282 65.1183 19.2124 65.3319 19.2978C65.6734 19.4258 65.588 19.9382 65.2891 19.9382H58.5437C58.0314 19.9382 58.0741 19.3832 58.2877 19.2551C58.8852 18.8709 58.0314 16.9497 57.5618 15.5835C57.0495 14.0039 53.4633 3.62967 53.2499 3.03197C52.7376 1.58043 52.3961 1.53774 52.0117 1.1962C51.7983 1.06812 51.841 0.427734 52.3106 0.427734H58.8852C59.3977 0.427734 59.3122 0.897352 59.1415 1.15351C58.8426 1.62312 64.1364 17.0778 64.1364 17.0778C64.1364 17.0778 66.3565 12.1681 66.9968 10.4604C68.491 6.61813 66.5272 2.22082 65.6306 1.06812C65.4598 0.811968 65.5027 0.427734 65.8442 0.427734H70.9246C71.138 0.427734 71.3088 0.641198 71.3088 0.854661Z" fill="black"/>
<path d="M87.912 6.27578C90.2602 11.4842 88.2536 17.4612 83.4293 19.6385C82.2341 20.1935 80.9533 20.4497 79.7151 20.4497C75.9155 20.4497 72.2013 18.1016 70.4509 14.1739C68.1027 9.0081 70.1094 3.03115 74.9336 0.811156C76.1289 0.256154 77.367 0 78.6051 0C82.362 0 86.119 2.39077 87.912 6.27578ZM83.1731 19.0408C84.9235 18.2723 84.5394 13.6616 82.362 8.79463C80.1419 3.92769 76.94 0.597693 75.1898 1.40885C73.4394 2.22001 73.7809 6.78809 76.0009 11.655C78.2208 16.522 81.4227 19.852 83.1731 19.0408Z" fill="black"/>
</g>
<defs>
<clipPath id="clip0_2531_9413">
<rect width="89" height="20.4907" fill="white"/>
</clipPath>
</defs>
</svg>
